<mxfile host="app.diagrams.net" modified="2023-03-01T14:06:38.746Z" agent="5.0 (Macintosh; Intel Mac OS X 10_15_7) AppleWebKit/605.1.15 (KHTML, like Gecko) Version/16.3 Safari/605.1.15" etag="ZGsB_BhGtVLV21aS5y5g" version="20.8.23" type="github">
  <diagram name="第 1 页" id="ZSmWvPYyhMm1NjeAWpzS">
    <mxGraphModel dx="2006" dy="1028" grid="1" gridSize="10" guides="1" tooltips="1" connect="1" arrows="1" fold="1" page="1" pageScale="1" pageWidth="827" pageHeight="1169" math="0" shadow="0">
      <root>
        <mxCell id="0" />
        <mxCell id="1" parent="0" />
        <mxCell id="2mOsJv5o1-elGFaLER7f-24" value="" style="rounded=0;whiteSpace=wrap;html=1;fontSize=17;fillColor=#f5f5f5;fontColor=#333333;strokeColor=#666666;" parent="1" vertex="1">
          <mxGeometry x="30" y="350" width="140" height="330" as="geometry" />
        </mxCell>
        <mxCell id="2mOsJv5o1-elGFaLER7f-17" style="edgeStyle=orthogonalEdgeStyle;rounded=0;orthogonalLoop=1;jettySize=auto;html=1;entryX=0.75;entryY=1;entryDx=0;entryDy=0;fontSize=17;endArrow=blockThin;endFill=1;" parent="1" source="ZLMnLhB53y7CrOd58POB-1" target="ZLMnLhB53y7CrOd58POB-22" edge="1">
          <mxGeometry relative="1" as="geometry">
            <Array as="points">
              <mxPoint x="100" y="850" />
              <mxPoint x="745" y="850" />
            </Array>
          </mxGeometry>
        </mxCell>
        <mxCell id="ZLMnLhB53y7CrOd58POB-1" value="&lt;font style=&quot;font-size: 18px;&quot;&gt;Accuracy&lt;/font&gt;" style="ellipse;whiteSpace=wrap;html=1;fillColor=#f8cecc;strokeColor=#b85450;" parent="1" vertex="1">
          <mxGeometry x="40" y="590" width="120" height="80" as="geometry" />
        </mxCell>
        <mxCell id="2mOsJv5o1-elGFaLER7f-16" style="edgeStyle=orthogonalEdgeStyle;rounded=0;orthogonalLoop=1;jettySize=auto;html=1;entryX=0.5;entryY=0;entryDx=0;entryDy=0;fontSize=17;endArrow=blockThin;endFill=1;" parent="1" source="ZLMnLhB53y7CrOd58POB-2" target="2mOsJv5o1-elGFaLER7f-10" edge="1">
          <mxGeometry relative="1" as="geometry" />
        </mxCell>
        <mxCell id="2mOsJv5o1-elGFaLER7f-23" style="rounded=0;orthogonalLoop=1;jettySize=auto;html=1;entryX=0.75;entryY=0;entryDx=0;entryDy=0;fontSize=17;startArrow=none;startFill=0;endArrow=classic;endFill=1;" parent="1" source="ZLMnLhB53y7CrOd58POB-2" target="ZLMnLhB53y7CrOd58POB-3" edge="1">
          <mxGeometry relative="1" as="geometry" />
        </mxCell>
        <mxCell id="ZLMnLhB53y7CrOd58POB-2" value="&lt;font style=&quot;font-size: 18px;&quot;&gt;Tile Size&lt;/font&gt;" style="ellipse;whiteSpace=wrap;html=1;fillColor=#ffe6cc;strokeColor=#d79b00;" parent="1" vertex="1">
          <mxGeometry x="240" y="190" width="120" height="80" as="geometry" />
        </mxCell>
        <mxCell id="ZLMnLhB53y7CrOd58POB-3" value="&lt;font style=&quot;font-size: 18px;&quot;&gt;Prune&lt;/font&gt;" style="rounded=0;whiteSpace=wrap;html=1;fillColor=#dae8fc;strokeColor=#6c8ebf;" parent="1" vertex="1">
          <mxGeometry x="40" y="380" width="120" height="50" as="geometry" />
        </mxCell>
        <mxCell id="ZLMnLhB53y7CrOd58POB-6" value="" style="endArrow=classic;html=1;rounded=0;fontSize=18;exitX=0.5;exitY=1;exitDx=0;exitDy=0;entryX=0.5;entryY=0;entryDx=0;entryDy=0;" parent="1" source="ZLMnLhB53y7CrOd58POB-3" target="ZLMnLhB53y7CrOd58POB-12" edge="1">
          <mxGeometry width="50" height="50" relative="1" as="geometry">
            <mxPoint x="240" y="520" as="sourcePoint" />
            <mxPoint x="210" y="460" as="targetPoint" />
          </mxGeometry>
        </mxCell>
        <mxCell id="2mOsJv5o1-elGFaLER7f-1" style="edgeStyle=orthogonalEdgeStyle;rounded=0;orthogonalLoop=1;jettySize=auto;html=1;entryX=0.5;entryY=0;entryDx=0;entryDy=0;" parent="1" source="ZLMnLhB53y7CrOd58POB-12" target="ZLMnLhB53y7CrOd58POB-1" edge="1">
          <mxGeometry relative="1" as="geometry" />
        </mxCell>
        <mxCell id="ZLMnLhB53y7CrOd58POB-12" value="&lt;font size=&quot;4&quot;&gt;Real&lt;br&gt;Mask&lt;/font&gt;" style="ellipse;whiteSpace=wrap;html=1;fillColor=#fff2cc;strokeColor=#d6b656;" parent="1" vertex="1">
          <mxGeometry x="40" y="470" width="120" height="80" as="geometry" />
        </mxCell>
        <mxCell id="2mOsJv5o1-elGFaLER7f-9" style="edgeStyle=orthogonalEdgeStyle;rounded=0;orthogonalLoop=1;jettySize=auto;html=1;entryX=0.5;entryY=0;entryDx=0;entryDy=0;endArrow=blockThin;endFill=1;" parent="1" source="ZLMnLhB53y7CrOd58POB-15" target="ZLMnLhB53y7CrOd58POB-20" edge="1">
          <mxGeometry relative="1" as="geometry" />
        </mxCell>
        <mxCell id="ZLMnLhB53y7CrOd58POB-15" value="schedule a kernel using Ansor" style="rounded=0;whiteSpace=wrap;html=1;fontSize=18;fillColor=#dae8fc;strokeColor=#6c8ebf;" parent="1" vertex="1">
          <mxGeometry x="210" y="610" width="180" height="50" as="geometry" />
        </mxCell>
        <mxCell id="ZLMnLhB53y7CrOd58POB-23" style="edgeStyle=none;rounded=0;orthogonalLoop=1;jettySize=auto;html=1;fontSize=18;entryX=0.5;entryY=1;entryDx=0;entryDy=0;" parent="1" source="ZLMnLhB53y7CrOd58POB-20" target="ZLMnLhB53y7CrOd58POB-22" edge="1">
          <mxGeometry relative="1" as="geometry">
            <mxPoint x="699" y="210" as="targetPoint" />
            <Array as="points">
              <mxPoint x="700" y="780" />
            </Array>
          </mxGeometry>
        </mxCell>
        <mxCell id="ZLMnLhB53y7CrOd58POB-20" value="Latency" style="ellipse;whiteSpace=wrap;html=1;fontSize=18;fillColor=#f8cecc;strokeColor=#b85450;" parent="1" vertex="1">
          <mxGeometry x="240" y="740" width="120" height="80" as="geometry" />
        </mxCell>
        <mxCell id="2mOsJv5o1-elGFaLER7f-18" style="edgeStyle=orthogonalEdgeStyle;rounded=0;orthogonalLoop=1;jettySize=auto;html=1;entryX=1;entryY=0.5;entryDx=0;entryDy=0;fontSize=17;endArrow=blockThin;endFill=1;" parent="1" source="ZLMnLhB53y7CrOd58POB-22" target="ZLMnLhB53y7CrOd58POB-2" edge="1">
          <mxGeometry relative="1" as="geometry">
            <Array as="points">
              <mxPoint x="700" y="230" />
            </Array>
          </mxGeometry>
        </mxCell>
        <mxCell id="ZLMnLhB53y7CrOd58POB-22" value="Cost Model" style="rounded=0;whiteSpace=wrap;html=1;fontSize=18;fillColor=#dae8fc;strokeColor=#6c8ebf;" parent="1" vertex="1">
          <mxGeometry x="609" y="418" width="181" height="50" as="geometry" />
        </mxCell>
        <mxCell id="ZLMnLhB53y7CrOd58POB-30" value="Update" style="text;html=1;strokeColor=none;fillColor=none;align=center;verticalAlign=middle;whiteSpace=wrap;rounded=0;fontSize=18;" parent="1" vertex="1">
          <mxGeometry x="320" y="100" width="130" height="30" as="geometry" />
        </mxCell>
        <mxCell id="2mOsJv5o1-elGFaLER7f-15" style="edgeStyle=orthogonalEdgeStyle;rounded=0;orthogonalLoop=1;jettySize=auto;html=1;exitX=0.5;exitY=1;exitDx=0;exitDy=0;entryX=0.5;entryY=0;entryDx=0;entryDy=0;fontSize=17;endArrow=blockThin;endFill=1;" parent="1" source="niBAzzRXNpo4yKbwdz7n-1" target="ZLMnLhB53y7CrOd58POB-3" edge="1">
          <mxGeometry relative="1" as="geometry" />
        </mxCell>
        <mxCell id="2mOsJv5o1-elGFaLER7f-21" style="edgeStyle=orthogonalEdgeStyle;rounded=0;orthogonalLoop=1;jettySize=auto;html=1;entryX=0.75;entryY=0;entryDx=0;entryDy=0;fontSize=17;endArrow=none;endFill=0;startArrow=classic;startFill=1;" parent="1" source="niBAzzRXNpo4yKbwdz7n-1" target="ZLMnLhB53y7CrOd58POB-22" edge="1">
          <mxGeometry relative="1" as="geometry">
            <Array as="points">
              <mxPoint x="100" y="140" />
              <mxPoint x="745" y="140" />
            </Array>
          </mxGeometry>
        </mxCell>
        <mxCell id="NPHYOOQYIG98-jwEgC6E-7" style="rounded=0;orthogonalLoop=1;jettySize=auto;html=1;exitX=1;exitY=1;exitDx=0;exitDy=0;entryX=0.25;entryY=0;entryDx=0;entryDy=0;fontSize=19;" edge="1" parent="1" source="niBAzzRXNpo4yKbwdz7n-1" target="2mOsJv5o1-elGFaLER7f-10">
          <mxGeometry relative="1" as="geometry" />
        </mxCell>
        <mxCell id="niBAzzRXNpo4yKbwdz7n-1" value="&lt;font size=&quot;4&quot;&gt;Sparsity&lt;/font&gt;" style="ellipse;whiteSpace=wrap;html=1;fillColor=#ffe6cc;strokeColor=#d79b00;" parent="1" vertex="1">
          <mxGeometry x="40" y="190" width="120" height="80" as="geometry" />
        </mxCell>
        <mxCell id="2mOsJv5o1-elGFaLER7f-11" style="edgeStyle=orthogonalEdgeStyle;rounded=0;orthogonalLoop=1;jettySize=auto;html=1;endArrow=blockThin;endFill=1;entryX=0.5;entryY=0;entryDx=0;entryDy=0;" parent="1" source="2mOsJv5o1-elGFaLER7f-10" target="2mOsJv5o1-elGFaLER7f-12" edge="1">
          <mxGeometry relative="1" as="geometry">
            <mxPoint x="300" y="480" as="targetPoint" />
          </mxGeometry>
        </mxCell>
        <mxCell id="2mOsJv5o1-elGFaLER7f-10" value="&lt;font style=&quot;font-size: 17px;&quot;&gt;Mask generator&lt;/font&gt;" style="shape=process;whiteSpace=wrap;html=1;backgroundOutline=1;fillColor=#d5e8d4;strokeColor=#82b366;" parent="1" vertex="1">
          <mxGeometry x="240" y="380" width="120" height="60" as="geometry" />
        </mxCell>
        <mxCell id="2mOsJv5o1-elGFaLER7f-14" style="edgeStyle=orthogonalEdgeStyle;rounded=0;orthogonalLoop=1;jettySize=auto;html=1;entryX=0.5;entryY=0;entryDx=0;entryDy=0;fontSize=17;endArrow=blockThin;endFill=1;" parent="1" source="2mOsJv5o1-elGFaLER7f-12" target="ZLMnLhB53y7CrOd58POB-15" edge="1">
          <mxGeometry relative="1" as="geometry" />
        </mxCell>
        <mxCell id="2mOsJv5o1-elGFaLER7f-12" value="&lt;font size=&quot;4&quot;&gt;Random&lt;br&gt;Mask&lt;/font&gt;" style="ellipse;whiteSpace=wrap;html=1;fillColor=#fff2cc;strokeColor=#d6b656;" parent="1" vertex="1">
          <mxGeometry x="240" y="480" width="120" height="80" as="geometry" />
        </mxCell>
        <mxCell id="2mOsJv5o1-elGFaLER7f-25" value="&lt;font style=&quot;font-size: 29px;&quot;&gt;Change to a cost model if too time consuming&lt;/font&gt;" style="text;html=1;strokeColor=none;fillColor=none;align=center;verticalAlign=middle;whiteSpace=wrap;rounded=0;fontSize=17;" parent="1" vertex="1">
          <mxGeometry x="40" y="640" width="120" height="260" as="geometry" />
        </mxCell>
        <mxCell id="NPHYOOQYIG98-jwEgC6E-3" value="&lt;h1&gt;&lt;br&gt;&lt;/h1&gt;" style="text;html=1;strokeColor=none;fillColor=none;spacing=5;spacingTop=-20;whiteSpace=wrap;overflow=hidden;rounded=0;" vertex="1" parent="1">
          <mxGeometry x="-190" y="345" width="190" height="120" as="geometry" />
        </mxCell>
        <mxCell id="NPHYOOQYIG98-jwEgC6E-5" value="&lt;font style=&quot;font-size: 19px;&quot;&gt;The left flow is on the whole network&lt;/font&gt;" style="text;html=1;strokeColor=none;fillColor=none;align=center;verticalAlign=middle;whiteSpace=wrap;rounded=0;" vertex="1" parent="1">
          <mxGeometry x="-160" y="365" width="180" height="80" as="geometry" />
        </mxCell>
        <mxCell id="NPHYOOQYIG98-jwEgC6E-6" value="&lt;font style=&quot;font-size: 19px;&quot;&gt;The right flow is on the a specific matrix size, say M=N=K=1024&lt;/font&gt;" style="text;html=1;strokeColor=none;fillColor=none;align=center;verticalAlign=middle;whiteSpace=wrap;rounded=0;" vertex="1" parent="1">
          <mxGeometry x="324" y="270" width="180" height="100" as="geometry" />
        </mxCell>
      </root>
    </mxGraphModel>
  </diagram>
</mxfile>
